<svg width="51" height="37" viewBox="0 0 51 37" fill="none" xmlns="http://www.w3.org/2000/svg">
<path d="M7.88903 16.7601C7.68655 16.7601 7.50939 16.6918 7.35753 16.5551C7.20567 16.4184 7.10949 16.2413 7.069 16.0236C6.94245 15.1783 6.80831 14.4493 6.66657 13.8369C6.5299 13.2244 6.36539 12.7055 6.17303 12.2803C5.98068 11.8551 5.74277 11.5008 5.4593 11.2173C5.17583 10.9288 4.82403 10.6934 4.40389 10.5112C3.98375 10.329 3.47502 10.1746 2.87771 10.048C2.28547 9.92148 1.57933 9.80253 0.759291 9.69116C0.536566 9.66079 0.354336 9.56968 0.212601 9.41782C0.0708672 9.2609 0 9.07867 0 8.87114C0 8.65854 0.0708672 8.47631 0.212601 8.32445C0.359398 8.16753 0.544158 8.07389 0.766884 8.04352C1.7489 7.93216 2.574 7.80308 3.24217 7.65628C3.91541 7.50443 4.46969 7.29942 4.90502 7.04126C5.34035 6.77804 5.69215 6.42371 5.96043 5.97827C6.22872 5.53282 6.44638 4.96589 6.61342 4.27747C6.78047 3.58399 6.93233 2.73106 7.069 1.71868C7.10443 1.50102 7.19808 1.32386 7.34994 1.18718C7.50179 1.05051 7.68149 0.982178 7.88903 0.982178C8.09657 0.982178 8.27374 1.05051 8.42054 1.18718C8.57239 1.31879 8.66604 1.49343 8.70147 1.71109C8.85839 2.72347 9.02291 3.57387 9.19501 4.26228C9.36712 4.9507 9.58478 5.5151 9.848 5.95549C10.1163 6.39587 10.4656 6.74767 10.8958 7.01089C11.3312 7.26905 11.8829 7.47659 12.5511 7.6335C13.2193 7.78536 14.0418 7.92203 15.0188 8.04352C15.2364 8.07389 15.4161 8.16753 15.5579 8.32445C15.7047 8.47631 15.7781 8.65854 15.7781 8.87114C15.7781 9.07867 15.7047 9.2609 15.5579 9.41782C15.4111 9.57474 15.2314 9.66585 15.0188 9.69116C14.0368 9.80253 13.2091 9.93413 12.5359 10.086C11.8627 10.2328 11.3084 10.4378 10.873 10.701C10.4377 10.9642 10.0859 11.3186 9.81763 11.764C9.54935 12.2044 9.33169 12.7713 9.16464 13.4648C8.9976 14.1532 8.84321 15.0036 8.70147 16.016C8.6711 16.2337 8.57999 16.4108 8.42813 16.5475C8.27627 16.6892 8.09657 16.7601 7.88903 16.7601Z" fill="#1B49FF"/>
<path d="M39.5439 37C39.2739 37 39.0377 36.9089 38.8352 36.7267C38.6327 36.5444 38.5045 36.3082 38.4505 36.018C38.2818 34.8909 38.1029 33.919 37.9139 33.1023C37.7317 32.2857 37.5123 31.5939 37.2559 31.027C36.9994 30.46 36.6822 29.9876 36.3042 29.6096C35.9263 29.2249 35.4572 28.9111 34.897 28.6681C34.3368 28.4251 33.6585 28.2193 32.8621 28.0506C32.0724 27.8818 31.1309 27.7232 30.0375 27.5747C29.7406 27.5343 29.4976 27.4128 29.3086 27.2103C29.1196 27.0011 29.0252 26.7581 29.0252 26.4814C29.0252 26.1979 29.1196 25.9549 29.3086 25.7525C29.5044 25.5432 29.7507 25.4184 30.0477 25.3779C31.357 25.2294 32.4571 25.0573 33.3481 24.8616C34.2457 24.6591 34.9847 24.3858 35.5652 24.0415C36.1456 23.6906 36.6147 23.2181 36.9724 22.6242C37.3301 22.0303 37.6203 21.2744 37.8431 20.3565C38.0658 19.4319 38.2683 18.2946 38.4505 16.9448C38.4977 16.6546 38.6226 16.4183 38.8251 16.2361C39.0275 16.0539 39.2671 15.9628 39.5439 15.9628C39.8206 15.9628 40.0568 16.0539 40.2525 16.2361C40.455 16.4116 40.5799 16.6444 40.6271 16.9347C40.8363 18.2845 41.0557 19.4184 41.2852 20.3362C41.5146 21.2541 41.8049 22.0067 42.1558 22.5938C42.5135 23.181 42.9792 23.6501 43.5529 24.0011C44.1334 24.3453 44.869 24.622 45.7599 24.8312C46.6508 25.0337 47.7476 25.2159 49.0502 25.3779C49.3404 25.4184 49.58 25.5432 49.769 25.7525C49.9647 25.9549 50.0626 26.1979 50.0626 26.4814C50.0626 26.7581 49.9647 27.0011 49.769 27.2103C49.5733 27.4195 49.3337 27.541 49.0502 27.5747C47.7408 27.7232 46.6373 27.8987 45.7397 28.1012C44.842 28.2969 44.103 28.5703 43.5225 28.9212C42.9421 29.2722 42.473 29.7446 42.1153 30.3385C41.7576 30.9257 41.4674 31.6816 41.2447 32.6063C41.022 33.5242 40.8161 34.658 40.6271 36.0079C40.5866 36.2981 40.4651 36.5343 40.2627 36.7165C40.0602 36.9055 39.8206 37 39.5439 37Z" fill="#1B49FF"/>
<path d="M32.0598 0.223467C33.396 -0.129053 34.5001 -0.0646589 35.3723 0.417803C36.2447 0.90037 36.8478 1.80559 37.1819 3.13265L37.5442 4.4969C37.7297 5.2299 37.66 5.88451 37.3352 6.45979C37.0104 7.03498 36.4627 7.42461 35.6927 7.62874L20.4085 11.7215H36.6946C37.4834 11.7215 38.1105 11.9528 38.5745 12.4168C39.0345 12.8769 39.2649 13.4878 39.2688 14.2489C38.7194 14.3009 38.2048 14.5081 37.7698 14.8651L37.6702 14.951C37.184 15.3886 36.8894 15.9462 36.7679 16.5457L36.7454 16.6668L36.7425 16.6903L36.7386 16.7127C36.5614 18.0249 36.3685 19.0998 36.1643 19.9481C35.9692 20.7524 35.7335 21.3319 35.4925 21.7323C35.2777 22.0888 35.0096 22.3565 34.678 22.5584C34.2992 22.7818 33.7463 22.9998 32.9729 23.1746C32.1603 23.3529 31.1246 23.5168 29.8538 23.661L29.8147 23.6649C29.1859 23.7506 28.6048 24.0212 28.1389 24.4774L28.0471 24.5721L28.0462 24.5731C27.551 25.1036 27.2982 25.7718 27.2981 26.4813C27.2982 27.1945 27.557 27.848 28.0266 28.368L28.0364 28.3787L28.0462 28.3885L28.138 28.4832C28.6068 28.9423 29.1893 29.202 29.805 29.286H29.8059C30.8702 29.4305 31.7665 29.5831 32.5013 29.7401H32.5042L32.7669 29.7987C33.361 29.9367 33.8377 30.0912 34.2102 30.2528C34.593 30.4188 34.8698 30.6138 35.0725 30.8201L35.0833 30.8309C35.2213 30.9689 35.3555 31.1449 35.4856 31.3651C35.3583 31.3715 35.2278 31.3768 35.094 31.3768H12.2093C10.8173 31.3768 9.76807 31.0288 9.06277 30.3328C8.36676 29.6461 8.01883 28.6199 8.01883 27.2557V18.4813C8.52585 18.456 9.00137 18.2851 9.40262 17.9813L9.58426 17.8309C9.58702 17.8284 9.59032 17.8256 9.59305 17.8231C9.59765 17.8189 9.60314 17.8146 9.6077 17.8104V17.8094C10.0129 17.4356 10.2639 16.9677 10.3743 16.4696L10.4134 16.2547C10.5503 15.277 10.6949 14.4864 10.844 13.8719L10.845 13.869C10.9849 13.2885 11.1474 12.903 11.2942 12.6619L11.2981 12.6551C11.4249 12.4449 11.5783 12.2931 11.7679 12.1785C11.9944 12.0417 12.3564 11.8928 12.9046 11.7733L12.9104 11.7723L12.9163 11.7703C13.5084 11.6368 14.2706 11.5141 15.2141 11.4071H15.219L15.2239 11.4061L15.3391 11.3905C15.9111 11.297 16.4232 11.0223 16.8206 10.5975C17.2546 10.1332 17.506 9.53313 17.5061 8.87093C17.506 8.31264 17.329 7.7853 16.9934 7.34749L16.8401 7.16585C16.8334 7.15837 16.8264 7.15077 16.8196 7.14339C16.8133 7.13672 16.8074 7.1295 16.8011 7.12288H16.8001C16.3805 6.6784 15.8417 6.41338 15.2581 6.33187L15.2327 6.32796L14.888 6.28401C14.107 6.17972 13.4608 6.06742 12.9427 5.95003C12.5202 5.85058 12.2027 5.73659 11.969 5.62483L32.0598 0.223467ZM13.3782 14.0594L11.388 17.7625H15.9671L18.0559 13.8924H17.011L13.3782 14.0594ZM20.2268 17.7625H25.1409L27.2288 13.8924H22.3011L20.2268 17.7625ZM29.4007 17.7625H33.9661L36.055 13.8924H31.4749L29.4007 17.7625ZM20.2825 5.63851L19.2805 9.91194L24.0276 8.65901L25.0296 4.37093L20.2825 5.63851ZM33.0198 2.22737C32.8528 2.26449 32.6761 2.30695 32.4905 2.35335L29.136 3.27132L28.1204 7.54476L32.5462 6.36214L33.5345 2.11604C33.3675 2.15314 33.196 2.19028 33.0198 2.22737Z" fill="white"/>
</svg>
