<svg width="29" height="30" viewBox="0 0 29 30" fill="none" xmlns="http://www.w3.org/2000/svg">
<path d="M3.03661 29.9237C2.15565 29.9237 1.4619 29.7254 0.955357 29.329C0.459821 28.9436 0.212053 28.4095 0.212053 27.7268C0.212053 26.6586 0.531398 25.5409 1.17009 24.3737C1.80878 23.1954 2.73378 22.0942 3.94509 21.0701C5.1564 20.035 6.61547 19.1981 8.32232 18.5594C10.0402 17.9097 11.9673 17.5848 14.1036 17.5848C16.2509 17.5848 18.178 17.9097 19.8848 18.5594C21.6027 19.1981 23.0618 20.035 24.2621 21.0701C25.4734 22.0942 26.3984 23.1954 27.037 24.3737C27.6868 25.5409 28.0116 26.6586 28.0116 27.7268C28.0116 28.4095 27.7583 28.9436 27.2518 29.329C26.7562 29.7254 26.068 29.9237 25.1871 29.9237H3.03661ZM14.1201 14.6281C12.9418 14.6281 11.8516 14.3088 10.8496 13.6701C9.84747 13.0204 9.03809 12.1504 8.42143 11.0603C7.81577 9.95908 7.51295 8.72575 7.51295 7.36027C7.51295 6.01682 7.81577 4.80551 8.42143 3.72634C9.03809 2.64718 9.84747 1.79375 10.8496 1.16607C11.8516 0.538396 12.9418 0.224557 14.1201 0.224557C15.2984 0.224557 16.3885 0.53289 17.3906 1.14956C18.3927 1.76622 19.1966 2.61414 19.8022 3.69331C20.4189 4.76146 20.7272 5.97277 20.7272 7.32723C20.7272 8.70372 20.4189 9.94256 19.8022 11.0438C19.1966 12.1449 18.3927 13.0204 17.3906 13.6701C16.3885 14.3088 15.2984 14.6281 14.1201 14.6281Z" fill="white"/>
</svg>
