<svg width="51" height="37" viewBox="0 0 51 37" fill="none" xmlns="http://www.w3.org/2000/svg">
<path d="M39.5439 15.9631C39.8206 15.9632 40.0572 16.0544 40.2529 16.2366C40.4551 16.412 40.5797 16.6448 40.627 16.9348C40.8362 18.2846 41.0557 19.4183 41.2852 20.3362C41.5146 21.2541 41.8053 22.0068 42.1562 22.594C42.5139 23.181 42.9792 23.6503 43.5527 24.0012C44.1331 24.3454 44.8689 24.6221 45.7598 24.8313C46.6506 25.0338 47.7473 25.2162 49.0498 25.3782C49.3398 25.4186 49.5796 25.5432 49.7686 25.7522C49.9643 25.9547 50.0625 26.1982 50.0625 26.4817C50.0624 26.7583 49.9642 27.001 49.7686 27.2102C49.5729 27.4193 49.3332 27.5407 49.0498 27.5745C47.7406 27.7229 46.6368 27.8984 45.7393 28.1008C44.8417 28.2966 44.1028 28.5702 43.5225 28.9211C42.9421 29.272 42.4729 29.7443 42.1152 30.3381C41.7575 30.9253 41.4678 31.6821 41.2451 32.6067C41.0224 33.5245 40.8159 34.6583 40.627 36.0081C40.5864 36.2982 40.4651 36.5348 40.2627 36.717C40.0603 36.9059 39.8205 37.0002 39.5439 37.0002C39.274 37.0002 39.0374 36.909 38.835 36.7268C38.6325 36.5446 38.5042 36.308 38.4502 36.0178C38.2815 34.891 38.103 33.9193 37.9141 33.1028C37.7318 32.2861 37.5123 31.5935 37.2559 31.0266C36.9995 30.4599 36.6825 29.9875 36.3047 29.6096C35.9268 29.225 35.4575 28.9112 34.8975 28.6682C34.3373 28.4253 33.6586 28.2197 32.8623 28.051C32.0726 27.8823 31.1305 27.7229 30.0371 27.5745C29.7404 27.5339 29.4975 27.4126 29.3086 27.2102C29.1197 27.0011 29.0255 26.7583 29.0254 26.4817C29.0254 26.1982 29.1196 25.9547 29.3086 25.7522C29.5043 25.5431 29.751 25.4187 30.0479 25.3782C31.357 25.2297 32.4569 25.0573 33.3477 24.8616C34.2453 24.6591 34.985 24.3855 35.5654 24.0413C36.1457 23.6903 36.615 23.2181 36.9727 22.6243C37.3303 22.0304 37.6201 21.2744 37.8428 20.3567C38.0655 19.4321 38.268 18.2944 38.4502 16.9446C38.4975 16.6545 38.6228 16.4187 38.8252 16.2366C39.0277 16.0543 39.2672 15.9631 39.5439 15.9631ZM32.0596 0.223877C33.3956 -0.12863 34.4998 -0.0641984 35.3721 0.418213C36.2444 0.90079 36.8476 1.80603 37.1816 3.13306L37.5439 4.49731C37.7294 5.23019 37.6597 5.885 37.335 6.46021L37.2031 6.66724C36.8702 7.12984 36.3661 7.45056 35.6924 7.62915L20.4082 11.7219H36.6943C37.4831 11.7219 38.1102 11.9532 38.5742 12.4172C39.0342 12.8773 39.2646 13.4883 39.2686 14.2493L39.0645 14.2756C38.592 14.355 38.1502 14.5532 37.7695 14.8655L37.6699 14.9514C37.1839 15.3889 36.8891 15.9468 36.7676 16.5461L36.7451 16.6672L36.7422 16.6907L36.7383 16.7131C36.5611 18.0252 36.3682 19.1003 36.1641 19.9485L36.0889 20.2395C35.9097 20.8946 35.703 21.3824 35.4922 21.7327L35.4092 21.8625C35.2095 22.1551 34.9677 22.3823 34.6777 22.5588L34.5273 22.6418C34.1572 22.8355 33.6492 23.0221 32.9727 23.175L32.3213 23.3059C31.6276 23.434 30.8066 23.5533 29.8535 23.6614L29.8145 23.6653C29.1857 23.7511 28.6045 24.0216 28.1387 24.4778L28.0469 24.5725L28.0459 24.5735C27.5509 25.104 27.298 25.7723 27.2979 26.4817L27.3096 26.7463C27.3657 27.3561 27.6156 27.9135 28.0264 28.3684L28.0361 28.3792L28.0459 28.3889L28.1377 28.4836C28.5477 28.8852 29.0451 29.1341 29.5752 29.2463L29.8047 29.2864H29.8057C30.8698 29.4309 31.7663 29.5835 32.501 29.7405H32.5039L32.7666 29.7991C33.3607 29.9371 33.8375 30.0916 34.21 30.2532C34.5926 30.4192 34.8695 30.6142 35.0723 30.8206L35.083 30.8313C35.221 30.9693 35.3552 31.1454 35.4854 31.3655C35.3581 31.3719 35.2274 31.3772 35.0938 31.3772H12.209L11.9521 31.3733C10.7718 31.3352 9.85394 31.0301 9.19922 30.4592L9.0625 30.3333C8.41008 29.6895 8.06331 28.7471 8.02246 27.5081L8.01855 27.2561V18.4817C8.52544 18.4564 9.00116 18.2854 9.40234 17.9817L9.58398 17.8313C9.58663 17.8289 9.5901 17.8259 9.59277 17.8235C9.59727 17.8194 9.60292 17.8149 9.60742 17.8108V17.8098C10.0125 17.4361 10.2636 16.9679 10.374 16.47L10.4131 16.2551C10.5157 15.5221 10.6225 14.8938 10.7324 14.3665L10.8438 13.8723L10.8447 13.8694C10.9845 13.2892 11.1472 12.9034 11.2939 12.6624L11.2979 12.6555C11.3929 12.4979 11.5029 12.3726 11.6318 12.2717L11.7676 12.179C11.9941 12.0421 12.3563 11.8932 12.9043 11.7737L12.9102 11.7727L12.916 11.7708C13.508 11.6373 14.2705 11.5145 15.2139 11.4075H15.2188L15.2236 11.4065L15.3389 11.3909C15.8392 11.3092 16.294 11.0885 16.666 10.7502L16.8203 10.5979C17.2543 10.1337 17.5057 9.53339 17.5059 8.87134C17.5058 8.3131 17.3287 7.78568 16.9932 7.3479L16.8398 7.16626C16.8331 7.15881 16.8261 7.15115 16.8193 7.1438C16.8131 7.13716 16.8071 7.12988 16.8008 7.12329H16.7998L16.6367 6.96509C16.2445 6.61553 15.7684 6.4036 15.2578 6.33228L15.2324 6.32837L14.8877 6.28442C14.1068 6.18014 13.4605 6.06782 12.9424 5.95044C12.5201 5.85101 12.2023 5.73698 11.9688 5.62524L32.0596 0.223877ZM10.3418 19.7629C10.2365 19.8313 10.1284 19.8946 10.0186 19.9534V27.2561C10.0186 28.3004 10.2819 28.7269 10.4668 28.9094L10.5557 28.9866C10.7931 29.1711 11.2627 29.3772 12.209 29.3772H26.2686C25.6895 28.6115 25.3484 27.6935 25.3027 26.7092L25.2979 26.4817C25.298 25.2802 25.7337 24.1194 26.584 23.2083L26.6074 23.1838L26.6162 23.175L26.7021 23.0862L26.7207 23.0667L26.7393 23.0491C27.5276 22.277 28.5113 21.8248 29.5439 21.6838L29.5801 21.679L29.6152 21.675L29.6406 21.6721C30.8598 21.5335 31.8167 21.3796 32.5371 21.2219C33.1496 21.083 33.4888 20.9332 33.6455 20.844C33.691 20.8152 33.7302 20.7819 33.7793 20.7004C33.8694 20.5506 34.0035 20.2576 34.1426 19.7629H10.3418ZM13.3779 14.0598L11.3877 17.7629H15.9668L18.0557 13.8928H17.0107L13.3779 14.0598ZM20.2266 17.7629H25.1406L27.2285 13.8928H22.3008L20.2266 17.7629ZM29.4004 17.7629H33.9658L36.0547 13.8928H31.4746L29.4004 17.7629ZM7.88867 0.982666C8.0962 0.982666 8.27411 1.05012 8.4209 1.18677C8.57276 1.31838 8.66574 1.49352 8.70117 1.71118C8.85807 2.72343 9.02323 3.57359 9.19531 4.26196C9.36738 4.95022 9.58452 5.51498 9.84766 5.95532C10.1159 6.39564 10.4653 6.74778 10.8955 7.01099C11.3307 7.26909 11.8828 7.47615 12.5508 7.63306C13.2189 7.7849 14.0417 7.92174 15.0186 8.04321C15.2362 8.07358 15.4159 8.16763 15.5576 8.32446C15.7044 8.47632 15.7783 8.65874 15.7783 8.87134C15.7783 9.07881 15.7044 9.26133 15.5576 9.41821C15.4109 9.57494 15.231 9.66636 15.0186 9.69165C14.0368 9.80299 13.2093 9.93436 12.5361 10.0862C11.8629 10.233 11.3084 10.4382 10.873 10.7014C10.4378 10.9646 10.0856 11.3185 9.81738 11.7639C9.54911 12.2043 9.33208 12.7716 9.16504 13.4651C8.99801 14.1535 8.84289 15.0036 8.70117 16.0159C8.6708 16.2335 8.57959 16.4104 8.42773 16.5471C8.27588 16.6889 8.09621 16.76 7.88867 16.76C7.68634 16.7599 7.50919 16.6915 7.35742 16.5549C7.20568 16.4183 7.10983 16.2412 7.06934 16.0237C6.94281 15.1785 6.8087 14.4496 6.66699 13.8372C6.53033 13.2247 6.36519 12.7057 6.17285 12.2805C5.9805 11.8553 5.74245 11.5005 5.45898 11.217C5.17563 10.9287 4.82417 10.6931 4.4043 10.511C3.98421 10.3288 3.47515 10.1746 2.87793 10.0481C2.28581 9.92158 1.57958 9.80299 0.759766 9.69165C0.537203 9.6613 0.354581 9.56987 0.212891 9.41821C0.0711933 9.26133 3.69798e-05 9.07881 0 8.87134C0 8.65874 0.0711563 8.47632 0.212891 8.32446C0.359612 8.16769 0.544055 8.07361 0.766602 8.04321C1.74861 7.93185 2.57402 7.80329 3.24219 7.65649C3.91543 7.50464 4.46995 7.29942 4.90527 7.04126C5.34033 6.77816 5.69176 6.42388 5.95996 5.97876C6.22823 5.53334 6.44624 4.96596 6.61328 4.27759C6.78031 3.58416 6.93267 2.73127 7.06934 1.71899C7.10477 1.50133 7.19775 1.32344 7.34961 1.18677C7.50137 1.0502 7.68131 0.982745 7.88867 0.982666ZM19.791 11.8459L19.6133 11.8928H20.167L20.1484 11.7512L19.791 11.8459ZM20.2822 5.63892L19.2803 9.91235L24.0273 8.65942L25.0293 4.37134L20.2822 5.63892ZM33.0195 2.22778C32.8526 2.26489 32.6757 2.30739 32.4902 2.35376L29.1357 3.27173L28.1201 7.54517L32.5459 6.36255L33.5342 2.11646C33.3674 2.15352 33.1956 2.19072 33.0195 2.22778ZM34.7256 5.81665L35.1748 5.69751L35.1797 5.69556L35.3018 5.65942C35.5522 5.574 35.5877 5.488 35.5938 5.47681L35.6211 5.41821C35.6479 5.3451 35.6647 5.22183 35.6055 4.98755H35.6045L35.249 3.64575L35.2451 3.63403L35.2422 3.62134C35.2415 3.61845 35.24 3.61543 35.2393 3.61255L34.7256 5.81665Z" fill="white"/>
</svg>
