<svg width="34" height="34" viewBox="0 0 34 34" fill="none" xmlns="http://www.w3.org/2000/svg">
<path d="M0.830357 14.0679C0.830357 12.2179 1.17723 10.4835 1.87098 8.86473C2.57574 7.23497 3.54479 5.80343 4.77812 4.57009C6.01146 3.32575 7.4375 2.3567 9.05625 1.66295C10.686 0.9692 12.4259 0.622325 14.2759 0.622325C16.1369 0.622325 17.8768 0.9692 19.4955 1.66295C21.1253 2.3567 22.5568 3.32575 23.7902 4.57009C25.0235 5.80343 25.9871 7.23497 26.6808 8.86473C27.3856 10.4835 27.7379 12.2179 27.7379 14.0679C27.7379 15.5214 27.5122 16.9034 27.0607 18.2138C26.6202 19.5243 26.0091 20.719 25.2272 21.7982L32.7594 29.3634C32.9906 29.5836 33.1613 29.8424 33.2714 30.1397C33.3926 30.4371 33.4531 30.7509 33.4531 31.0812C33.4531 31.5437 33.3485 31.9622 33.1393 32.3366C32.9301 32.711 32.6437 33.0028 32.2804 33.2121C31.917 33.4323 31.4985 33.5424 31.025 33.5424C30.6946 33.5424 30.3753 33.4818 30.067 33.3607C29.7696 33.2506 29.4998 33.0744 29.2576 32.8321L21.6759 25.2504C20.6187 25.9552 19.4625 26.5113 18.2071 26.9188C16.9628 27.3152 15.6524 27.5134 14.2759 27.5134C12.4259 27.5134 10.686 27.1665 9.05625 26.4728C7.4375 25.779 6.01146 24.8155 4.77812 23.5821C3.54479 22.3488 2.57574 20.9228 1.87098 19.304C1.17723 17.6743 0.830357 15.9289 0.830357 14.0679ZM4.28259 14.0679C4.28259 15.4554 4.53586 16.7548 5.04241 17.9661C5.55997 19.1664 6.27574 20.2235 7.18973 21.1375C8.11473 22.0515 9.18289 22.7728 10.3942 23.3013C11.6055 23.8189 12.8994 24.0777 14.2759 24.0777C15.6634 24.0777 16.9573 23.8189 18.1576 23.3013C19.3689 22.7728 20.4315 22.0515 21.3455 21.1375C22.2595 20.2235 22.9753 19.1664 23.4929 17.9661C24.0214 16.7548 24.2857 15.4554 24.2857 14.0679C24.2857 12.6914 24.0214 11.3975 23.4929 10.1862C22.9753 8.97485 22.2595 7.9122 21.3455 6.99822C20.4315 6.07322 19.3689 5.35744 18.1576 4.8509C16.9573 4.33334 15.6634 4.07456 14.2759 4.07456C12.8994 4.07456 11.6055 4.33334 10.3942 4.8509C9.18289 5.35744 8.11473 6.07322 7.18973 6.99822C6.27574 7.9122 5.55997 8.97485 5.04241 10.1862C4.53586 11.3975 4.28259 12.6914 4.28259 14.0679Z" fill="white"/>
</svg>
