<svg width="30" height="32" viewBox="0 0 30 32" fill="none" xmlns="http://www.w3.org/2000/svg">
<path d="M4.25893 31.3696C1.56101 31.3696 0.212053 30.4887 0.212053 28.7268C0.212053 27.6476 0.54241 26.4969 1.20312 25.2746C1.86384 24.0522 2.81637 22.9015 4.06071 21.8223C5.31607 20.7321 6.83021 19.8457 8.60312 19.1629C10.3871 18.4802 12.4022 18.1388 14.6487 18.1388C16.8841 18.1388 18.8882 18.4802 20.6612 19.1629C22.4451 19.8457 23.9592 20.7321 25.2036 21.8223C26.4589 22.9015 27.417 24.0522 28.0777 25.2746C28.7384 26.4969 29.0687 27.6476 29.0687 28.7268C29.0687 30.4887 27.7198 31.3696 25.0219 31.3696H4.25893ZM3.48259 28.8754H25.8147C26.024 28.8754 26.1726 28.8424 26.2607 28.7763C26.3598 28.7103 26.4094 28.5891 26.4094 28.4129C26.4094 27.7302 26.1506 26.9484 25.633 26.0674C25.1265 25.1865 24.3722 24.333 23.3701 23.5071C22.368 22.6813 21.1347 21.9985 19.6701 21.4589C18.2165 20.9083 16.5427 20.633 14.6487 20.633C12.7546 20.633 11.0753 20.9083 9.61071 21.4589C8.14613 21.9985 6.9128 22.6813 5.91071 23.5071C4.90863 24.333 4.14881 25.1865 3.63125 26.0674C3.1247 26.9484 2.87143 27.7302 2.87143 28.4129C2.87143 28.5891 2.91548 28.7103 3.00357 28.7763C3.10268 28.8424 3.26235 28.8754 3.48259 28.8754ZM14.6487 16.0741C13.3382 16.0741 12.1435 15.7272 11.0643 15.0335C9.98512 14.3397 9.12068 13.4092 8.47098 12.242C7.83229 11.0637 7.51295 9.76979 7.51295 8.36027C7.51295 6.96176 7.83229 5.68988 8.47098 4.54465C9.12068 3.39941 9.98512 2.48542 11.0643 1.80268C12.1435 1.11994 13.3382 0.778575 14.6487 0.778575C15.9701 0.778575 17.1704 1.11444 18.2496 1.78616C19.3287 2.45789 20.1876 3.36637 20.8263 4.51161C21.465 5.64584 21.7844 6.91771 21.7844 8.32723C21.7844 9.74777 21.4595 11.0472 20.8098 12.2254C20.1711 13.3927 19.3122 14.3287 18.233 15.0335C17.1539 15.7272 15.9591 16.0741 14.6487 16.0741ZM14.6487 13.5799C15.4635 13.5799 16.2068 13.3487 16.8786 12.8862C17.5613 12.4127 18.1064 11.7795 18.5138 10.9866C18.9213 10.1827 19.125 9.29628 19.125 8.32723C19.125 7.3692 18.9213 6.51027 18.5138 5.75045C18.1174 4.97962 17.5778 4.37396 16.8951 3.93348C16.2234 3.49301 15.4746 3.27277 14.6487 3.27277C13.8338 3.27277 13.085 3.49851 12.4022 3.95C11.7305 4.39048 11.1909 4.99613 10.7835 5.76697C10.376 6.5378 10.1723 7.40223 10.1723 8.36027C10.1723 9.32932 10.376 10.2103 10.7835 11.0031C11.2019 11.796 11.747 12.4237 12.4187 12.8862C13.1015 13.3487 13.8448 13.5799 14.6487 13.5799Z" fill="white"/>
</svg>
