<svg width="34" height="34" viewBox="0 0 34 34" fill="none" xmlns="http://www.w3.org/2000/svg">
<path d="M0.330357 14.233C0.330357 12.317 0.688244 10.522 1.40402 8.84822C2.1308 7.1634 3.13289 5.68229 4.41027 4.40491C5.68765 3.12753 7.16324 2.13096 8.83705 1.41518C10.5219 0.688396 12.3278 0.325003 14.2549 0.325003C16.171 0.325003 17.9659 0.688396 19.6397 1.41518C21.3246 2.13096 22.8057 3.12753 24.083 4.40491C25.3604 5.68229 26.357 7.1634 27.0728 8.84822C27.7995 10.522 28.1629 12.317 28.1629 14.233C28.1629 15.5875 27.9757 16.8814 27.6013 18.1147C27.2269 19.3481 26.7039 20.4823 26.0321 21.5174L32.5897 28.108C32.9091 28.4384 33.1458 28.8018 33.3 29.1982C33.4652 29.6057 33.5478 30.0296 33.5478 30.4701C33.5478 31.0978 33.4046 31.6649 33.1183 32.1714C32.832 32.678 32.4356 33.0799 31.929 33.3772C31.4335 33.6746 30.8664 33.8232 30.2277 33.8232C29.7762 33.8232 29.3412 33.7406 28.9228 33.5754C28.5043 33.4213 28.1354 33.1845 27.8161 32.8652L21.1759 26.225C20.1738 26.8307 19.0836 27.3042 17.9054 27.6455C16.7381 27.9869 15.5213 28.1576 14.2549 28.1576C12.3278 28.1576 10.5219 27.7997 8.83705 27.0839C7.16324 26.3571 5.68765 25.3551 4.41027 24.0777C3.13289 22.8003 2.1308 21.3247 1.40402 19.6509C0.688244 17.9661 0.330357 16.1601 0.330357 14.233ZM4.85625 14.233C4.85625 15.5324 5.09851 16.7493 5.58303 17.8835C6.06756 19.0177 6.73928 20.0198 7.59821 20.8897C8.46815 21.7487 9.47024 22.4204 10.6045 22.9049C11.7387 23.3894 12.95 23.6317 14.2384 23.6317C15.5378 23.6317 16.7546 23.3894 17.8888 22.9049C19.0231 22.4204 20.0196 21.7487 20.8786 20.8897C21.7485 20.0198 22.4257 19.0177 22.9103 17.8835C23.3948 16.7493 23.6371 15.5324 23.6371 14.233C23.6371 12.9446 23.3948 11.7333 22.9103 10.5991C22.4257 9.46488 21.7485 8.46831 20.8786 7.60938C20.0196 6.73944 19.0231 6.06221 17.8888 5.57768C16.7546 5.09316 15.5378 4.8509 14.2384 4.8509C12.95 4.8509 11.7387 5.09316 10.6045 5.57768C9.47024 6.06221 8.46815 6.73944 7.59821 7.60938C6.73928 8.46831 6.06756 9.46488 5.58303 10.5991C5.09851 11.7333 4.85625 12.9446 4.85625 14.233Z" fill="white"/>
</svg>
